<svg viewBox="0 0 280 120" fill="none" xmlns="http://www.w3.org/2000/svg">
  <!-- Background swoosh/wave pattern -->
  <g opacity="0.3">
    <path d="M75 25C85 30 90 40 88 52C86 64 78 75 65 82C52 89 38 90 28 85" stroke="#9CA3AF" stroke-width="12" stroke-linecap="round" fill="none"/>
    <path d="M80 45C88 52 92 62 88 74C84 86 74 96 60 100" stroke="#9CA3AF" stroke-width="10" stroke-linecap="round" fill="none"/>
    <path d="M72 65C78 72 80 82 75 92" stroke="#9CA3AF" stroke-width="8" stroke-linecap="round" fill="none"/>
  </g>
  <!-- Crown -->
  <path d="M30 22L38 10L50 20L62 10L70 22L65 25L50 18L35 25L30 22Z" fill="#E07555"/>
  <!-- Key head (circular part) -->
  <circle cx="50" cy="42" r="18" stroke="#E07555" stroke-width="8" fill="none"/>
  <!-- Key shaft -->
  <rect x="46" y="56" width="8" height="50" fill="#E07555"/>
  <!-- Key teeth/notches -->
  <rect x="54" y="85" width="10" height="6" fill="#E07555"/>
  <rect x="54" y="95" width="8" height="5" fill="#E07555"/>
  <!-- MHSB Text -->
  <text x="110" y="75" font-family="system-ui, -apple-system, sans-serif" font-size="48" font-weight="bold" fill="#2F364A">MHSB</text>
</svg>
